<svg class="stroke-hover" width="25px" viewBox="0 0 49 49" stroke="black" fill="none" xmlns="http://www.w3.org/2000/svg">
<path d="M42.1786 37H14.8571L6.82143 2H2M8.42857 8.66667H47L42.1786 30.3333H13.25L8.42857 8.66667Z" stroke-width="3.125" stroke-linecap="round" stroke-linejoin="round"/>
<path d="M38.9643 47C40.7395 47 42.1786 45.5076 42.1786 43.6667C42.1786 41.8257 40.7395 40.3333 38.9643 40.3333C37.1891 40.3333 35.75 41.8257 35.75 43.6667C35.75 45.5076 37.1891 47 38.9643 47Z" stroke-width="3.125" stroke-linecap="round" stroke-linejoin="round"/>
<path d="M18.0714 47C19.8466 47 21.2857 45.5076 21.2857 43.6667C21.2857 41.8257 19.8466 40.3333 18.0714 40.3333C16.2962 40.3333 14.8571 41.8257 14.8571 43.6667C14.8571 45.5076 16.2962 47 18.0714 47Z" stroke-width="3.125" stroke-linecap="round" stroke-linejoin="round"/>
</svg>
