<svg width="22" height="39" viewBox="0 0 22 39" fill="none" xmlns="http://www.w3.org/2000/svg">
<path fill-rule="evenodd" clip-rule="evenodd" d="M0.459043 0.439087C0.604186 0.299902 0.77661 0.189475 0.966438 0.114129C1.15627 0.0387837 1.35977 0 1.56529 0C1.77082 0 1.97432 0.0387837 2.16415 0.114129C2.35398 0.189475 2.5264 0.299902 2.67155 0.439087L21.4216 18.3739C21.5671 18.5128 21.6825 18.6777 21.7613 18.8593C21.8401 19.0408 21.8806 19.2355 21.8806 19.4321C21.8806 19.6287 21.8401 19.8233 21.7613 20.0049C21.6825 20.1865 21.5671 20.3514 21.4216 20.4902L2.67155 38.4251C2.37815 38.7057 1.98022 38.8634 1.56529 38.8634C1.15037 38.8634 0.752439 38.7057 0.459043 38.4251C0.165647 38.1445 0.000818075 37.7638 0.000818075 37.3669C0.000818075 36.9701 0.165647 36.5894 0.459043 36.3088L18.1059 19.4321L0.459043 2.5554C0.313533 2.41657 0.198086 2.25164 0.119315 2.07006C0.040545 1.88849 0 1.69383 0 1.49724C0 1.30066 0.040545 1.106 0.119315 0.924423C0.198086 0.742847 0.313533 0.577919 0.459043 0.439087Z" fill="black"/>
</svg>
