<svg width="22" height="39" viewBox="0 0 22 39" fill="none" xmlns="http://www.w3.org/2000/svg">
<path fill-rule="evenodd" clip-rule="evenodd" d="M21.4215 0.439085C21.5671 0.577918 21.6825 0.742845 21.7613 0.92442C21.84 1.106 21.8806 1.30065 21.8806 1.49724C21.8806 1.69383 21.84 1.88848 21.7613 2.07006C21.6825 2.25163 21.5671 2.41656 21.4215 2.55539L3.77467 19.432L21.4215 36.3087C21.7149 36.5893 21.8798 36.9699 21.8798 37.3668C21.8798 37.7637 21.7149 38.1443 21.4215 38.425C21.1281 38.7056 20.7302 38.8633 20.3153 38.8633C19.9004 38.8633 19.5024 38.7056 19.209 38.425L0.459042 20.4902C0.313532 20.3514 0.198085 20.1864 0.119315 20.0049C0.0405449 19.8233 0 19.6286 0 19.432C0 19.2354 0.0405449 19.0408 0.119315 18.8592C0.198085 18.6776 0.313532 18.5127 0.459042 18.3739L19.209 0.439085C19.3542 0.299902 19.5266 0.189474 19.7164 0.114129C19.9063 0.0387836 20.1098 0 20.3153 0C20.5208 0 20.7243 0.0387836 20.9141 0.114129C21.104 0.189474 21.2764 0.299902 21.4215 0.439085Z" fill="black"/>
</svg>
