<svg viewBox="0 0 80 100" fill="none" xmlns="http://www.w3.org/2000/svg">
<g clip-path="url(#clip0)">
<path d="M28.8458 78.0578V72.3771C28.8458 63.2338 28.8479 54.0896 28.8519 44.9447C28.8576 41.9369 28.9091 38.9288 28.9902 35.9221C29.0326 32.0625 30.1184 28.2862 32.1325 24.9935C34.0713 21.8726 36.8105 19.6873 40.1097 18.1619C43.1683 16.7923 46.4296 15.9302 49.7655 15.6094C52.9355 15.2492 56.1391 15.3096 59.2932 15.7892C62.1201 16.2239 64.9564 16.7264 67.517 18.0423C73.7573 21.2478 77.7815 26.1928 79.0022 33.2206C79.3546 35.5606 79.5203 37.9249 79.4974 40.2911C79.5142 41.6036 79.5195 42.9172 79.486 44.2293C79.4658 45.0183 79.2258 45.2015 78.4452 45.2084C76.0649 45.2289 73.683 45.2552 71.3046 45.2743C70.4855 45.2811 70.0855 44.936 70.0382 44.1096C69.9796 43.0741 69.962 42.036 69.9464 40.9982C69.9152 38.7002 69.9464 36.3999 69.8657 34.1026C69.7022 29.43 68.0423 25.3939 64.5629 22.1945C62.2009 20.1303 59.2857 18.8037 56.1777 18.3789C53.0697 17.9542 49.9054 18.4499 47.0762 19.8046C43.031 21.8916 40.1908 25.0328 39.0658 29.5012C38.7514 30.9851 38.5907 32.4974 38.5862 34.0142C38.4978 36.2825 38.5134 38.5554 38.5165 40.8264C38.5248 47.1769 38.5774 53.5269 38.5523 59.8774C38.5566 62.0368 38.4495 64.1949 38.2315 66.3433C37.7023 71.2616 35.2302 74.9281 30.8345 77.2479C30.1859 77.5518 29.5222 77.8221 28.8458 78.0578Z" fill="#1A1918"/>
<path d="M29.3338 83.2581C33.4152 82.4604 33.4152 82.4604 38.3846 80.2705C38.4502 81.0885 38.4989 81.8976 38.5824 82.7038C39.1763 88.5449 42.1189 92.7764 47.3535 95.4047C48.6759 96.0687 50.132 96.2809 51.5938 96.4158C53.5541 96.6248 55.5325 96.5985 57.4866 96.3373C61.4541 95.7567 64.4288 93.6534 66.6521 90.3877C68.5084 87.7256 69.5679 84.5899 69.7068 81.3475C69.821 78.63 69.8713 75.9099 69.9426 73.1905C69.9613 72.4667 69.9304 71.7428 69.9635 71.0189C70.0016 70.1518 70.4344 69.7377 71.3076 69.6855C71.7172 69.6612 72.1282 69.6596 72.5385 69.66C74.4002 69.6618 76.2618 69.6661 78.1232 69.673C79.1138 69.676 79.5199 69.9915 79.513 70.9709C79.4963 73.3894 79.4749 75.8093 79.3401 78.2243C79.2387 80.4532 78.8269 82.657 78.1168 84.7721C75.8911 91.182 71.5293 95.5106 65.1846 97.8395C61.4701 99.2034 57.6032 99.656 53.6621 99.5847C49.4711 99.5557 45.3201 98.7673 41.4103 97.2578C37.2732 95.6787 33.7738 92.7768 31.4566 89.0032C30.408 87.232 29.6888 85.2856 29.3338 83.2581Z" fill="#191918"/>
<path d="M39.814 17.1386V1.99411C39.814 1.92592 39.814 1.85697 39.814 1.78877C39.8369 0.807382 40.2034 0.421453 41.1951 0.417263C43.7268 0.405071 46.2586 0.405071 48.7905 0.417263C49.7464 0.421834 50.0858 0.77157 50.1495 1.72667C50.1609 1.90382 50.1632 2.08212 50.1632 2.26004C50.1632 6.18788 50.1632 10.1158 50.1632 14.0439V14.5274C46.5969 14.8439 43.1036 15.7253 39.814 17.1386Z" fill="#191918"/>
<path d="M44.9793 57.5569C44.4155 57.5516 43.8724 57.769 43.468 58.1618C43.0635 58.5547 42.8304 59.0912 42.8192 59.6549C42.8217 59.9322 42.8793 60.2063 42.9885 60.4612C43.0977 60.7162 43.2564 60.947 43.4553 61.1402C43.6543 61.3334 43.8896 61.4852 44.1477 61.5868C44.4058 61.6885 44.6814 61.7379 44.9587 61.7323C45.5252 61.7438 46.0733 61.5304 46.4828 61.1387C46.8924 60.7471 47.1301 60.2092 47.144 59.6427C47.1446 59.3662 47.089 59.0925 46.9804 58.8382C46.8718 58.5839 46.7125 58.3545 46.5123 58.1638C46.0993 57.7704 45.5496 57.5528 44.9793 57.5569Z" fill="#191918"/>
<path d="M50.1628 20.2108V19.7155C48.1866 20.2528 46.3481 21.2066 44.7709 22.513C42.6618 24.3272 40.992 26.4625 40.1935 29.1751C39.6636 30.9759 39.6003 32.8431 39.5889 34.7015C39.5668 38.3143 39.6057 41.9274 39.6045 45.5406C39.603 50.8513 39.594 56.1621 39.5775 61.4729C39.5916 63.4424 39.4504 65.41 39.1553 67.3574C38.8574 69.4506 38.0988 71.4516 36.9341 73.2161C35.7694 74.9806 34.2277 76.4647 32.4201 77.5614C29.1525 79.6286 25.6007 79.9136 21.9315 78.8586C17.5884 77.6098 14.4732 74.9632 12.8994 70.6578C12.0482 68.1724 11.5168 65.5889 11.318 62.9694C11.105 60.7799 10.9724 58.5821 10.8025 56.388C10.7343 55.5084 10.3876 55.1518 9.50719 55.1384C6.99048 55.1003 4.47377 55.0794 1.95706 55.0546C1.83404 55.0532 1.71122 55.0646 1.59056 55.0885C0.826326 55.2409 0.379444 55.8071 0.409541 56.8124C0.461734 58.5047 0.5105 60.2054 0.714321 61.884C1.4256 67.7399 4.14309 72.5691 8.58257 76.3777C15.1353 82.0017 22.7857 83.54 31.1088 81.8592C37.2044 80.629 42.0496 77.2494 45.9268 72.4564C48.0648 69.8139 49.5079 66.8214 49.7898 63.396C50.0074 60.7418 50.1365 58.0727 50.1453 55.4093C50.1845 43.6746 50.1628 31.9429 50.1628 20.2108ZM43.1015 27.2721C43.2744 27.169 43.4667 27.1024 43.6665 27.0767L43.7164 27.0683L43.7868 27.5293L43.7327 27.5335C43.5023 27.5229 43.2767 27.6023 43.1038 27.7551C42.9309 27.9078 42.8242 28.1218 42.8062 28.3518C42.8104 28.6341 43.0348 29.1701 43.8322 29.1701H47.1348V28.9377H47.3508V29.8559H47.1264V29.6479H44.2352C43.8421 29.6852 43.4466 29.6073 43.0969 29.4239C42.9244 29.3022 42.7838 29.1408 42.6869 28.9533C42.5899 28.7658 42.5395 28.5578 42.5399 28.3467C42.5403 28.1356 42.5915 27.9278 42.6892 27.7407C42.7869 27.5536 42.9282 27.3927 43.1011 27.2717L43.1015 27.2721ZM47.3512 34.6668V35.2897H47.131V35.0863H42.826V35.2897H42.6058V34.3788H42.7845L42.8176 34.3998L42.8218 34.4245L42.826 34.6116H46.4697L43.927 33.5978L46.3447 32.5844H42.826V32.7962H42.6058V32.0568H42.826V32.2933H47.131V32.0568H47.3512V32.6134L44.8673 33.6778L47.3512 34.6668ZM47.3512 38.4971V39.1242H47.131V38.9162H42.826V39.1242H42.6058V38.2099H42.826V38.4426H46.4697L43.927 37.4331L46.3447 36.4151H42.826V36.6269H42.6058V35.8875H42.826V36.124H47.131V35.8875H47.3512V36.4441L44.8673 37.5081L47.3512 38.4971ZM45.1618 41.2847L47.131 42.0657V41.8497H47.3512V42.5735H47.131V42.3655L44.7797 41.4268H42.8272V41.7594H42.607V40.6458H42.8272V40.9407H44.788L47.131 39.7943V39.5821H47.3512V40.5087H47.131V40.3007L45.1618 41.2847ZM47.131 31.4057V31.1977H42.826V31.4057H42.6058V30.5081H42.826V30.7283H47.131V30.5081H47.3512V31.4072L47.131 31.4057ZM44.9789 62.1975C44.4685 62.2214 43.9626 62.0919 43.5264 61.8256C43.0903 61.5593 42.7439 61.1685 42.5319 60.7035C42.3199 60.2386 42.2521 59.7208 42.3371 59.2169C42.4221 58.713 42.6561 58.2461 43.0089 57.8765C43.3617 57.5068 43.8171 57.2513 44.3165 57.1428C44.8158 57.0344 45.3362 57.078 45.8106 57.2681C46.2849 57.4581 46.6915 57.7859 46.9778 58.2091C47.2642 58.6324 47.4172 59.1317 47.4171 59.6427C47.4315 60.3043 47.183 60.9447 46.7261 61.4235C46.2692 61.9022 45.6412 62.1804 44.9797 62.1971L44.9789 62.1975ZM44.9789 56.7473C44.4685 56.7712 43.9626 56.6417 43.5265 56.3754C43.0903 56.1091 42.7439 55.7184 42.5319 55.2534C42.3199 54.7885 42.2521 54.2707 42.337 53.7668C42.422 53.263 42.656 52.7961 43.0087 52.4264C43.3615 52.0567 43.8169 51.8012 44.3162 51.6927C44.8156 51.5842 45.336 51.6278 45.8103 51.8178C46.2847 52.0078 46.6913 52.3355 46.9776 52.7587C47.264 53.1818 47.4171 53.6811 47.4171 54.1921C47.4316 54.8538 47.1831 55.4942 46.7262 55.9731C46.2694 56.452 45.6413 56.7302 44.9797 56.7469L44.9789 56.7473ZM45.8308 50.6818V49.2939H42.8272V49.5019H42.607V48.5891H42.8272V48.8177H47.1322V48.5891H47.3524V49.5035H47.1322V49.2955H46.0936V50.6833H47.1322V50.4506H47.3524L47.3482 51.3729H47.1322V51.1611H42.8272V51.3771H42.607V50.4509H42.8272V50.6837L45.8308 50.6818ZM47.4179 47.7102V47.922H46.4125V47.706H46.8278C47.0391 47.4049 47.151 47.0453 47.1478 46.6774C47.1245 46.1217 46.8838 45.5973 46.4776 45.2173C46.0715 44.8373 45.5323 44.632 44.9762 44.6457C44.6969 44.6379 44.4189 44.6861 44.1585 44.7873C43.898 44.8885 43.6604 45.0407 43.4596 45.2349C43.2588 45.4292 43.0988 45.6616 42.989 45.9185C42.8792 46.1754 42.8219 46.4517 42.8203 46.7311C42.8159 47.2171 42.9853 47.6887 43.298 48.0607L43.3274 48.1022L43.1655 48.2516L43.1323 48.2135C42.7564 47.8127 42.5469 47.284 42.5464 46.7345C42.5341 46.4069 42.588 46.0801 42.7049 45.7738C42.8218 45.4674 42.9993 45.1878 43.2268 44.9517C43.4543 44.7155 43.727 44.5277 44.0288 44.3993C44.3305 44.271 44.655 44.2049 44.9829 44.2049C45.3108 44.2049 45.6353 44.271 45.937 44.3993C46.2388 44.5277 46.5116 44.7155 46.739 44.9517C46.9665 45.1878 47.144 45.4674 47.2609 45.7738C47.3778 46.0801 47.4317 46.4069 47.4194 46.7345C47.4194 47.0693 47.3547 47.4008 47.2289 47.711L47.4179 47.7102Z" fill="#191918"/>
<path d="M44.9793 52.1051C44.6999 52.0954 44.4215 52.1418 44.1605 52.2417C43.8994 52.3416 43.661 52.4928 43.4595 52.6865C43.258 52.8801 43.0974 53.1123 42.9872 53.3691C42.877 53.626 42.8195 53.9024 42.8181 54.1819C42.8167 54.4614 42.8714 54.7383 42.979 54.9963C43.0866 55.2542 43.2449 55.488 43.4445 55.6837C43.644 55.8793 43.8809 56.033 44.1409 56.1354C44.4009 56.2379 44.6789 56.2871 44.9583 56.2802C45.5249 56.2917 46.0729 56.0782 46.4824 55.6866C46.892 55.295 47.1297 54.7571 47.1436 54.1906C47.1442 53.9141 47.0885 53.6404 46.9799 53.3861C46.8713 53.1318 46.7121 52.9023 46.5119 52.7116C46.0989 52.3185 45.5495 52.1011 44.9793 52.1051Z" fill="#191918"/>
</g>
<defs>
<clipPath id="clip0">
<rect width="79.9212" height="100" fill="white"/>
</clipPath>
</defs>
</svg>
